inDegrees=no
num_controls=7
num_derivatives=13
num_iterations=139
num_multipliers=7
num_parameters=0
num_slacks=7
num_states=26
objective=0.543559
objective_accelerations=0.042905
objective_balance=0.004031
objective_effort=0.042250
objective_height=0.445632
objective_ligament=0.008740
solver_duration=1456.993184
status=Solve_Succeeded
success=true
DataType=double
version=3
OpenSimVersion=4.5
endheader
time	/jointset/ground_pelvis/pelvis_tilt/value	/jointset/ground_pelvis/pelvis_tx/value	/jointset/ground_pelvis/pelvis_ty/value	/jointset/hip_r/hip_flexion_r/value	/jointset/hip_r/hip_adduction_r/value	/jointset/hip_r/hip_rotation_r/value	/jointset/back/lumbar_extension/value	/jointset/patellofemoral_r/patellar_flexion_r/value	/jointset/knee_r/knee_flexion_r/value	/jointset/knee_r/knee_adduction_r/value	/jointset/knee_r/knee_rotation_r/value	/jointset/ankle_r/ankle_angle_r/value	/jointset/subtalar_r/subtalar_angle_r/value	/jointset/ground_pelvis/pelvis_tilt/speed	/jointset/ground_pelvis/pelvis_tx/speed	/jointset/ground_pelvis/pelvis_ty/speed	/jointset/hip_r/hip_flexion_r/speed	/jointset/hip_r/hip_adduction_r/speed	/jointset/hip_r/hip_rotation_r/speed	/jointset/back/lumbar_extension/speed	/jointset/patellofemoral_r/patellar_flexion_r/speed	/jointset/knee_r/knee_flexion_r/speed	/jointset/knee_r/knee_adduction_r/speed	/jointset/knee_r/knee_rotation_r/speed	/jointset/ankle_r/ankle_angle_r/speed	/jointset/subtalar_r/subtalar_angle_r/speed	/forceset/tau_hip_flexion_r	/forceset/tau_hip_adduction_r	/forceset/tau_hip_rotation_r	/forceset/tau_knee_flexion_r	/forceset/tau_ankle_angle_r	/forceset/tau_subtalar_angle_r	/forceset/tau_lumbar_extension	lambda_cid13_p0	lambda_cid14_p0	lambda_cid14_p1	lambda_cid14_p2	lambda_cid14_p3	lambda_cid14_p4	lambda_cid14_p5	/jointset/ground_pelvis/pelvis_tilt/accel	/jointset/ground_pelvis/pelvis_tx/accel	/jointset/ground_pelvis/pelvis_ty/accel	/jointset/hip_r/hip_flexion_r/accel	/jointset/hip_r/hip_adduction_r/accel	/jointset/hip_r/hip_rotation_r/accel	/jointset/back/lumbar_extension/accel	/jointset/patellofemoral_r/patellar_flexion_r/accel	/jointset/knee_r/knee_flexion_r/accel	/jointset/knee_r/knee_adduction_r/accel	/jointset/knee_r/knee_rotation_r/accel	/jointset/ankle_r/ankle_angle_r/accel	/jointset/subtalar_r/subtalar_angle_r/accel	gamma_cid13_p0	gamma_cid14_p0	gamma_cid14_p1	gamma_cid14_p2	gamma_cid14_p3	gamma_cid14_p4	gamma_cid14_p5
0.5	-0.2410280571363049	-0.01300212755788436	0.8350632369346324	0.9417594257115147	-0.2282088920948913	-0.1308726425772651	-0.3431144443219271	0.6999401723519231	0.6999401723519392	0.03645344214870568	0.1744915871829646	0.1668802123100827	0.03226331340010896	-0.6478153177700688	-0.2282218190359455	-0.4233312453479859	2.050307663208178	0.0003205814882395872	0.2685137330907189	-0.5842344889037515	1.674238421865247	1.67423842186518	-0.279270622989095	-4.202271290993666e-05	0.3512907645553218	0.08839315197737545	-0.1679134529635236	-0.02451781514809949	0.009640464073854134	-0.3071666911181515	0.1231479640452539	-0.007458383406184232	0.1977936281488634	-31.33197474734252	-2.661390195297463	0.5236043105482537	-4.453781510665628	-2.860254164059078	-667.7931265012263	60.9202840342982	0.3437029829311974	0.57267585208954	-0.335923057255874	-1.403712844940396	-0.02144321242229189	-0.5022122170840754	1.803332557783107	-1.265686836380576	-1.265686836380577	0.4636790196831785	-0.002112714885979609	-0.3371842211743098	-0.0757804983226042	-1.151712015014464e-07	-1.456833188932672e-07	5.519885941318358e-07	-9.227876039544131e-07	3.544590482920281e-08	-2.478853831167949e-07	3.484533211729526e-07
0.51	-0.2474876802862329	-0.01525546137661577	0.8308141480136633	0.9621887728541485	-0.2282075790925144	-0.1282120914885689	-0.3488663165446114	0.7166166433903045	0.716616643390327	0.0336861097520476	0.1744914004166872	0.1703754004906128	0.03314221673464181	-0.6440146103790018	-0.2224237969311151	-0.4263881776479019	2.035274791476672	-6.660602899268171e-05	0.2636280277829487	-0.566065896432102	1.660813704787108	1.660813704787069	-0.2741355301128531	-1.710606241498295e-05	0.3476879791093596	0.08735908227080366	-0.1762341130514069	-0.02303091043591971	0.01027595373646471	-0.3093185549620078	0.120696145327398	-0.006978397665578953	0.2047674017884034	-30.36678255284671	-3.683546254046234	0.4570573967955047	-4.33347957806737	-2.429521785601619	-672.4084019845274	60.73833348297798	0.4124474151882445	0.5865417518854241	-0.2758698636013213	-1.596137557089331	-0.04870523653726012	-0.4771806729030346	1.83473147200443	-1.417154732237424	-1.417154732233271	0.5475313249645354	0.001369882119054426	-0.3806726357311225	-0.1214860770523802	-9.073058226472955e-08	-6.32231791222951e-08	7.62729084491594e-07	-3.450681814900066e-07	-4.507604133044538e-08	-1.645726275608751e-07	3.437742201555622e-07
0.52	-0.2539064578026519	-0.01745017970185775	0.8265374314602466	0.9824591786354995	-0.2282104077083434	-0.1255994836500051	-0.3544342810665497	0.7331516091401639	0.7331516091401926	0.03097194966482533	0.1744907780223343	0.1738327914307984	0.03400992619806334	-0.6396461910681834	-0.2164987203380613	-0.4288567718374902	2.018519390951817	-0.0005077421527681569	0.2589250830639973	-0.5474529487545089	1.645937364160693	1.645937364160682	-0.2686361611018175	-0.0001291483278470088	0.3437313164864392	0.08615437775511532	-0.1845547731392941	-0.02154400572373736	0.0109114433990543	-0.3114704188058637	0.1182443266095435	-0.006498411924969148	0.2117411754279388	-29.39535431120771	-4.708938592299707	0.3928261505588667	-4.216839538326439	-2.009905664659517	-677.0811990414951	60.61323832888659	0.4572453668814322	0.5980867497342178	-0.2182554351903311	-1.748218603610439	-0.03223293373093391	-0.4656600993203089	1.892203598971884	-1.556011546035722	-1.556011546035723	0.5365342466419127	-0.0295044980713764	-0.4079596565659729	-0.1099074601459236	-5.619404187174643e-08	6.651986737585767e-08	1.130130887020392e-06	5.531429367233591e-07	-1.785295101209159e-07	-3.514119371844805e-08	3.727679290601736e-07
0.53	-0.2602789779678217	-0.01958505957196796	0.8222389654315573	1.002553958181123	-0.2282172212220851	-0.1230359846214462	-0.359813928708621	0.7495308508978777	0.7495308508978801	0.02831142654323941	0.1744900778791325	0.1772491872623288	0.03486570948036116	-0.6347714728450856	-0.2104586157228064	-0.4307355167550437	2.000161538574868	-0.0008653458085620541	0.2538093162425211	-0.5284254657879385	1.629681037154624	1.629681037154622	-0.2634094430242369	-3.435627052953253e-05	0.339497972501377	0.08497393475260784	-0.1924105037044135	-0.0204221196341924	0.01148723986179822	-0.3142137193807467	0.1166399540737516	-0.006056383446159505	0.2183255917639569	-28.41835267041972	-5.463413874339314	0.3590202037833086	-4.104450284095734	-1.777659036166963	-681.7520219937602	60.59822139095382	0.5155495551273614	0.6097182863287154	-0.1575398796426519	-1.920803319480914	-0.03880451190998154	-0.5293432751362234	1.915687726271182	-1.694928201258626	-1.694928201257218	0.5248441490439664	0.02563297980288479	-0.4385428008922299	-0.1260353007845225	-3.208013350154551e-08	1.512639225781354e-07	1.353102800216058e-06	1.133697169650843e-06	-2.6454945172049e-07	4.932365993599818e-08	4.011502106718091e-07
0.54	-0.2666001580497399	-0.0216589892021441	0.8179247407817715	1.022456912250028	-0.2282278668584657	-0.1205226049214177	-0.3650017681048726	0.7657406324008565	0.7657406324008348	0.02570499131457494	0.1744896580409397	0.1806217454477252	0.03570890381653764	-0.6293781744178508	-0.2043086723512493	-0.4320084960567863	1.98015429560817	-0.001274166680610271	0.2489012173580465	-0.5090912995905047	1.612045313213912	1.61204531321392	-0.2578185825175432	-7.308732642921562e-05	0.3349637872596794	0.08363658853084573	-0.2002662342695401	-0.01930023354464908	0.012063036324562	-0.3169570199556306	0.1150355815379591	-0.005614354967353424	0.2249100080999683	-27.43677356146693	-6.224044189200999	0.3245269865596785	-3.992396253758033	-1.53671990819347	-686.5194187009988	60.58566462704481	0.5609614077088436	0.6200545009946455	-0.09710231202813872	-2.078096721560009	-0.04247637698179688	-0.4241265119200276	1.953540245144545	-1.831890932964181	-1.831890932964169	0.6093627324644874	-0.05620912071480764	-0.468127907893054	-0.1412881039968513	-1.949764779484839e-08	1.862218597509337e-07	1.416279942234639e-06	1.36280123162373e-06	-2.980897462152423e-07	8.403825465906074e-08	4.288560195337692e-07
0.55	-0.272864939487544	-0.02367097866649912	0.8136007949408571	1.042151938400704	-0.228242610276167	-0.1180583920227606	-0.3699948570142974	0.7817673958859406	0.7817673958859397	0.02315502010522076	0.1744888084322507	0.1839475572630861	0.03653828062318146	-0.6234969338440473	-0.198080489972971	-0.4326802085673722	1.958598562199914	-0.001677554287057119	0.2439379418414468	-0.4894954689970174	1.593093708459933	1.593093708459932	-0.2521571827465123	-9.556381479484301e-05	0.3301512247550657	0.08222030676225181	-0.2079504161518497	-0.01808769802080427	0.01252021333365644	-0.3195061159509923	0.113165587528807	-0.005173421360949074	0.2312685103636305	-26.45189495639672	-7.063493990833632	0.2746128563788678	-3.876577573734981	-1.17312355934159	-691.1204713834802	60.52089984857515	0.6138974722449514	0.6254464113612583	-0.03711559207483353	-2.232147303725716	-0.03937502636001484	-0.5328950106811636	1.96725646106436	-1.958844021149585	-1.958844021150912	0.5475822002918068	0.02519893740378525	-0.4949667863950434	-0.144164741207462	-1.170855087833204e-08	2.021987008731226e-07	1.419435141849863e-06	1.458253332297502e-06	-3.116073784767539e-07	1.017526071167205e-07	4.465784821563527e-07
